<?xml version="1.0" standalone="no"?>
<!DOCTYPE svg PUBLIC "-//W3C//DTD SVG 20010904//EN"
 "http://www.w3.org/TR/2001/REC-SVG-20010904/DTD/svg10.dtd">
<svg version="1.0" xmlns="http://www.w3.org/2000/svg"
 width="50.000000pt" height="50.000000pt" viewBox="0 0 50.000000 50.000000"
 preserveAspectRatio="xMidYMid meet">

<g transform="translate(0.000000,50.000000) scale(0.100000,-0.100000)"
fill="#000000" stroke="none">
<path d="M0 251 l0 -251 23 0 c12 0 28 9 35 20 10 16 19 19 55 14 30 -4 46 -2
54 7 19 24 19 56 -1 78 -19 21 -19 21 7 21 20 0 27 5 27 20 0 10 7 23 17 28
15 9 14 13 -8 48 -13 22 -25 53 -26 69 -5 73 -11 121 -17 137 -10 22 -64 47
-120 54 l-46 7 0 -252z"/>
<path d="M336 193 c-9 -47 -18 -88 -19 -90 -2 -2 -9 22 -16 52 -7 30 -16 55
-21 55 -5 0 -14 -16 -20 -36 -7 -19 -18 -38 -26 -41 -21 -8 -17 -23 6 -23 13
0 22 9 26 26 8 33 17 19 34 -54 6 -28 16 -52 20 -52 4 0 15 39 24 87 9 47 17
88 19 90 2 1 11 -31 21 -72 10 -41 21 -75 26 -75 4 0 14 23 21 50 7 28 16 50
19 50 4 0 12 -25 19 -55 7 -30 17 -55 22 -55 12 0 12 -2 -12 95 -12 47 -25 85
-29 85 -5 0 -14 -22 -21 -50 -7 -27 -16 -50 -19 -50 -4 0 -14 34 -24 75 -10
41 -21 75 -26 75 -4 0 -15 -39 -24 -87z"/>
</g>
</svg>
